<svg version="1.1" id="Layer_1" xmlns:x="ns_extend;" xmlns:i="ns_ai;" xmlns:graph="ns_graphs;" xmlns="http://www.w3.org/2000/svg" xmlns:xlink="http://www.w3.org/1999/xlink" x="0px" y="0px" viewBox="0 0 400 67.5" style="enable-background:new 0 0 400 67.5;" xml:space="preserve">
 <style type="text/css">
  .st0{fill:#2C3357;}
 </style>
 <metadata>
  <sfw xmlns="ns_sfw;">
   <slices>
   </slices>
   <sliceSourceBounds bottomLeftOrigin="true" height="67.5" width="400" x="-86.7" y="-233.8">
   </sliceSourceBounds>
  </sfw>
 </metadata>
 <g>
  <path class="st0" d="M59.6,0C59.6,0,59.6,0,59.6,0c-8.8,0-17.1,3.4-23.4,9.6c-3.1-1.4-6.6-2.1-10.2-2.1C11.7,7.5,0,19.2,0,33.8
		S11.7,60,26.1,60c3.5,0,7-0.7,10.1-2.1c6,5.9,14.3,9.6,23.3,9.6C78,67.5,93,52.4,93,33.8C93,15.2,78,0,59.6,0z M59.6,60
		c-14.3,0-26.1-11.7-26.1-26.3h-7.4c0,6.6,1.9,12.8,5.2,18c-1.7,0.5-3.4,0.7-5.2,0.7c-10.2,0-18.6-8.4-18.6-18.8S15.8,15,26.1,15
		c4.1,0,7.9,1.3,11.2,3.8c4.8,3.6,7.4,9,7.4,15h7.5c0-7.8-3.3-15.1-9.3-20.1c4.7-3.9,10.6-6.1,16.7-6.1c14.3,0,26.1,11.8,26.1,26.3
		C85.6,48.2,74,60,59.6,60z M111.9,52.6v-24h-5v-6h5v-8.9h7v8.9h5v6h-5v24H111.9z M131.3,18.2c-2.3,0-4.3-2-4.3-4.3
		c0-2.4,1.9-4.4,4.3-4.4c2.5,0,4.4,2,4.4,4.4S133.8,18.2,131.3,18.2z M127.9,52.6v-30h7v30H127.9z M167.9,45.5
		c-2.5,4.7-7.1,7.8-13.5,7.8c-9,0-15.5-6.5-15.5-15.7c0-9,6.6-15.7,15.1-15.7c8.7,0,14.8,6.7,14.8,15.7c0,0.5,0,1.3-0.1,2.2H146
		c0.3,4.3,4.2,7.6,8.6,7.6c3.9,0,5.9-1.9,7.6-4.5L167.9,45.5z M162,34.6c-0.5-4-3.6-7-8-7c-4.2,0-7.5,3.5-8,7H162z M179.8,52.6h-7
		v-30h7v4c1.9-2.9,5-4.7,9.1-4.7c7.3,0,11.5,4.9,11.5,12.7v18.1h-7V35.8c0-4.7-2.3-7.5-6.6-7.5c-4.2,0-7,3.2-7,8.4V52.6L179.8,52.6z
		 M228.8,52.6v-4.3c-2.2,3.1-6,5-10.1,5c-8.2,0-14.5-6.8-14.5-15.7c0-8.8,6.3-15.7,14.5-15.7c4.2,0,7.9,1.7,10.1,4.9V11.3h7v41.3
		H228.8z M220.1,46.8c5,0,8.9-4.2,8.9-9.3s-3.9-9.3-8.9-9.3c-5,0-8.9,4.2-8.9,9.3S215.1,46.8,220.1,46.8z M250.5,34.8l8.1-1v-1.3
		c0-3-2.1-4.9-5.3-4.9c-3,0-5,1.6-5.9,4.5l-6.4-1.7c1.5-5.4,6.2-8.7,12.3-8.7c7.8,0,12.1,4.1,12.1,11.2v19.5h-6.6l-0.1-3.6
		c-2,2.9-5.4,4.4-9.3,4.4c-5.6,0-9.6-3.6-9.6-8.7C239.9,39.2,243.4,35.9,250.5,34.8z M251.1,47.6c4.4,0,7.5-2.8,7.5-6.8v-1.7
		l-6.8,0.9c-3.4,0.4-5,2-5,4.1C246.9,46.3,248.7,47.6,251.1,47.6z M278.1,52.6h-7v-30h7v4c1.9-2.9,5-4.7,9.1-4.7
		c7.3,0,11.5,4.9,11.5,12.7v18.1h-7V35.8c0-4.7-2.3-7.5-6.6-7.5c-4.2,0-7,3.2-7,8.4V52.6L278.1,52.6z M303.9,39.6V22.5h7v16.7
		c0,4.7,2.3,7.6,6.2,7.6c3.9,0,6.2-2.8,6.2-7.6V22.5h7v17.1c0,8.6-5,13.6-13.3,13.6C308.9,53.3,303.9,48.3,303.9,39.6z M336,52.6
		V11.3h7v15.6c2.2-3.1,6-5,10.1-5c8.2,0,14.5,6.7,14.5,15.7c0,8.8-6.3,15.7-14.5,15.7c-4.2,0-7.9-1.7-10.1-4.9v4.1H336L336,52.6z
		 M351.7,28.2c-5,0-8.9,4.2-8.9,9.3s3.9,9.3,8.9,9.3c5,0,8.9-4.2,8.9-9.3S356.7,28.2,351.7,28.2z M399,45.5
		c-2.5,4.7-7.1,7.8-13.5,7.8c-9,0-15.5-6.5-15.5-15.7c0-9,6.6-15.7,15.1-15.7c8.7,0,14.8,6.7,14.8,15.7c0,0.5,0,1.3-0.1,2.2H377
		c0.3,4.3,4.2,7.6,8.6,7.6c3.9,0,5.9-1.9,7.6-4.5L399,45.5z M393,34.6c-0.5-4-3.6-7-8-7c-4.2,0-7.5,3.5-8,7H393z">
  </path>
 </g>
</svg>