<svg width="608" height="256" viewBox="0 0 608 256" fill="none" xmlns="http://www.w3.org/2000/svg">
<g clip-path="url(#clip0_78_4)">
<path d="M283.318 0C284.462 1.00504 284.915 1.84629 285.403 3.27777C286.117 5.1598 287.006 6.75516 288.1 8.44444C289.515 10.6692 290.61 12.8776 291.63 15.3055C295.033 23.2742 299.876 30.4634 305.112 37.3333C305.37 37.6725 305.627 38.0118 305.893 38.3613C308.876 42.2756 311.943 46.1031 315.147 49.8385C316.402 51.3112 317.61 52.815 318.811 54.3316C319.554 55.2605 320.303 56.1817 321.059 57.0989C332.578 71.0802 342.216 84.3374 346.116 102.191C346.203 102.587 346.289 102.984 346.379 103.392C346.814 105.396 347.244 107.401 347.661 109.408C349.167 116.565 351.367 122.964 354.591 129.555C355.781 132.055 356.56 134.114 356.705 136.889C356.141 136.825 355.576 136.76 354.994 136.694C345.862 135.693 337.105 135.73 328.166 138.04C319.021 140.397 310.549 138.527 301.751 135.867C291.354 132.778 280.783 131.442 269.975 131.111C269.642 131.101 269.309 131.09 268.966 131.08C252.266 130.637 236.121 134.536 220.583 140.394C220.082 140.58 219.582 140.766 219.066 140.958C218.401 141.211 218.401 141.211 217.721 141.469C216.603 141.778 216.603 141.778 215.269 141.333C219.07 139.357 222.934 137.635 226.916 136.055C227.204 135.941 227.492 135.826 227.788 135.708C247.819 127.762 267.266 124.602 288.697 127.359C292.109 127.796 295.495 128.188 298.941 128.222C299.256 128.23 299.571 128.238 299.896 128.246C302.242 128.219 304.079 127.512 306.002 126.222C306.751 125.417 306.751 125.417 307.086 124.5C307.214 124.217 307.341 123.934 307.473 123.642C313.14 105.662 303.394 82.0021 296.043 65.8298C289.271 50.8596 285.03 35.0041 283.318 18.6667C283.254 18.0498 283.254 18.0498 283.187 17.4204C282.846 13.8062 282.807 10.2118 282.818 6.58333C282.816 5.99045 282.815 5.39756 282.813 4.80468C282.814 3.97066 282.814 3.97066 282.814 3.11979C282.815 2.61609 282.815 2.11239 282.816 1.59342C282.874 0.444444 282.874 0.444444 283.318 0Z" fill="#00EE8E"/>
<path d="M517.267 160.444C522.551 160.444 527.835 160.444 533.279 160.444C533.426 171.444 533.572 182.444 533.724 193.778C535.191 192.458 536.659 191.138 538.171 189.778C539.683 188.851 539.683 188.851 541.007 188.278C541.441 188.082 541.876 187.886 542.324 187.684C546.551 186.198 550.482 185.54 554.961 185.583C555.467 185.587 555.973 185.591 556.494 185.595C565.274 185.775 573.691 188.807 579.98 195.111C587.872 204.039 589.493 213.717 588.98 225.25C588.758 228.241 588.093 230.948 587.096 233.778C586.967 234.182 586.839 234.587 586.707 235.003C584.057 242.545 578.076 248.396 571.084 252C567.777 253.505 564.462 254.64 560.855 255.111C560.4 255.171 559.945 255.23 559.477 255.292C551.066 256.141 542.479 254.786 535.77 249.359C534.925 248.626 534.1 247.871 533.279 247.111C533.132 249.458 532.985 251.804 532.834 254.222C527.697 254.222 522.56 254.222 517.267 254.222C517.267 223.275 517.267 192.329 517.267 160.444ZM538.06 205.861C533.602 211.141 532.856 217.347 533.279 224C534.202 229.763 537.056 234.871 541.785 238.333C546.547 241.28 551.805 241.993 557.286 241.123C561.889 240.041 565.947 237.514 568.86 233.778C572.571 227.664 573.421 220.922 572.113 213.918C570.509 208.782 567.786 204.581 563.061 201.899C554.506 197.51 544.81 198.8 538.06 205.861Z" fill="#00EE8E"/>
<path d="M81.3925 176C82.1389 176.735 82.8816 177.475 83.6163 178.222C82.9212 179.896 81.8789 180.949 80.5967 182.215C80.2877 182.522 80.2877 182.522 79.9723 182.835C79.3173 183.485 78.6593 184.131 78.0011 184.778C77.555 185.219 77.109 185.661 76.6633 186.102C75.5734 187.182 74.4808 188.258 73.3866 189.333C71.9829 188.511 70.8357 187.734 69.6895 186.583C63.025 180.631 54.1329 179.225 45.5273 179.495C37.6107 179.951 30.0572 183.702 24.6201 189.394C19.1269 196.067 16.7954 204.597 17.4918 213.16C18.3906 221.376 21.963 228.521 28.3033 233.88C35.8932 239.647 44.9527 241.318 54.3067 240.347C57.6664 239.856 60.731 238.764 63.8136 237.371C64.936 236.889 64.936 236.889 66.7151 236.444C66.7151 227.351 66.7151 218.258 66.7151 208.889C71.8521 208.889 76.9892 208.889 82.282 208.889C82.4604 217.748 82.4604 217.748 82.4992 221.534C82.5257 224.114 82.5571 226.694 82.6175 229.273C82.666 231.354 82.6925 233.434 82.704 235.515C82.7122 236.308 82.7282 237.1 82.7522 237.893C82.9332 244.1 82.9332 244.1 81.3223 246.051C80.1861 246.859 79.1104 247.445 77.8343 248C77.2616 248.324 76.691 248.652 76.1247 248.988C75.5854 249.266 75.0433 249.538 74.4985 249.805C74.1998 249.953 73.9011 250.1 73.5934 250.251C60.2475 256.62 44.5166 257.857 30.4101 253.264C18.7824 249.127 9.55404 241.157 4.11375 230.083C-0.985231 218.077 -1.47454 204.693 3.11302 192.444C7.71599 181.232 16.1734 173.017 27.1306 168C44.7968 160.643 67.0253 162.997 81.3925 176Z" fill="white"/>
<path d="M364.575 193.265C371.269 199.512 374.062 206.277 375.83 215.111C375.83 218.631 375.83 222.151 375.83 225.778C358.364 225.778 340.898 225.778 322.902 225.778C325.723 232.22 327.677 236.441 333.985 239.243C340.186 241.551 347.83 242.02 354.109 239.707C356.698 238.485 359.216 237.094 361.206 235.014C362.042 234.222 362.042 234.222 363.376 234.222C364.242 235.135 364.242 235.135 365.211 236.389C367.173 238.871 369.243 241.225 371.382 243.555C370.105 247.559 365.803 249.847 362.237 251.694C351.713 256.785 338.816 256.505 327.91 252.762C319.442 249.439 313.303 243.579 309.304 235.469C305.492 226.341 305.429 215.955 308.809 206.694C312.231 198.512 317.977 192.279 326.016 188.444C338.764 183.568 353.849 184.111 364.575 193.265ZM326.862 205.047C324.659 207.987 322.902 211.386 322.902 215.111C335.231 215.111 347.56 215.111 360.263 215.111C359.596 209.779 357.67 205.585 353.484 202.151C345.079 196.548 333.7 197.374 326.862 205.047Z" fill="white"/>
<path d="M475.987 185.611C476.311 185.611 476.634 185.612 476.968 185.612C485.592 185.642 493.35 186.965 499.81 193.182C505.093 198.672 507.196 205.167 507.138 212.697C507.138 213.149 507.139 213.6 507.139 214.065C507.138 215.544 507.131 217.023 507.124 218.502C507.123 219.532 507.121 220.563 507.12 221.594C507.117 224.296 507.108 226.999 507.098 229.702C507.089 232.463 507.085 235.225 507.081 237.987C507.071 243.399 507.056 248.811 507.037 254.222C502.047 254.222 497.057 254.222 491.915 254.222C491.695 250.922 491.695 250.922 491.47 247.556C490.883 248.289 490.296 249.022 489.691 249.778C482.4 255.542 473.664 255.606 464.784 255.111C459.013 254.431 453.091 251.674 449.388 247.115C445.629 241.864 445.039 236.522 445.659 230.222C446.543 225.652 449.321 221.896 453.125 219.262C459.448 215.44 466.402 214.589 473.652 214.623C474.15 214.624 474.649 214.625 475.162 214.625C476.744 214.628 478.325 214.633 479.906 214.639C480.983 214.641 482.06 214.643 483.136 214.645C485.766 214.65 488.396 214.657 491.026 214.667C490.829 213.524 490.627 212.383 490.423 211.241C490.368 210.92 490.313 210.598 490.256 210.267C489.647 206.902 488.382 204.39 485.6 202.264C479.647 198.651 472.527 198.986 465.959 200.455C461.734 201.587 458.058 203.145 454.555 205.778C451.938 204.791 451.151 202.18 449.94 199.833C449.686 199.365 449.432 198.896 449.17 198.413C448.935 197.962 448.699 197.51 448.456 197.045C448.239 196.632 448.023 196.219 447.799 195.793C447.438 194.667 447.438 194.667 447.727 193.69C448.742 192.336 450.217 191.678 451.691 190.917C452.027 190.742 452.362 190.567 452.708 190.387C460.034 186.708 467.861 185.588 475.987 185.611ZM463.651 228.677C461.661 230.968 461.484 232.54 461.523 235.505C461.747 237.605 462.41 238.951 463.895 240.445C467.705 243.375 472.391 243.932 477.055 243.432C482.181 242.678 486.104 240.384 489.516 236.526C491.165 234.168 491.138 231.96 491.081 229.189C491.077 228.818 491.073 228.447 491.069 228.065C491.059 227.154 491.043 226.244 491.026 225.333C488.876 225.311 486.726 225.295 484.576 225.285C483.848 225.28 483.12 225.274 482.392 225.266C472.346 224.756 472.346 224.756 463.651 228.677Z" fill="#00EE8E"/>
<path d="M117.947 185.611C118.271 185.611 118.595 185.612 118.928 185.612C127.553 185.642 135.31 186.965 141.77 193.182C147.053 198.672 149.156 205.167 149.099 212.697C149.099 213.149 149.099 213.6 149.099 214.065C149.099 215.544 149.092 217.023 149.085 218.502C149.083 219.532 149.082 220.563 149.081 221.594C149.077 224.296 149.069 226.999 149.059 229.702C149.05 232.463 149.046 235.225 149.041 237.987C149.032 243.399 149.016 248.811 148.998 254.222C144.007 254.222 139.017 254.222 133.876 254.222C133.655 250.922 133.655 250.922 133.431 247.556C132.844 248.289 132.257 249.022 131.652 249.778C124.36 255.542 115.624 255.606 106.745 255.111C100.973 254.431 95.0518 251.674 91.3481 247.115C87.5893 241.864 86.9992 236.522 87.6196 230.222C88.503 225.652 91.2814 221.896 95.0852 219.262C101.408 215.44 108.362 214.589 115.612 214.623C116.111 214.624 116.609 214.625 117.123 214.625C118.704 214.628 120.285 214.633 121.867 214.639C122.943 214.641 124.02 214.643 125.097 214.645C127.726 214.65 130.356 214.657 132.986 214.667C132.789 213.524 132.587 212.383 132.383 211.241C132.328 210.92 132.273 210.598 132.216 210.267C131.607 206.902 130.342 204.39 127.56 202.264C121.608 198.651 114.488 198.986 107.919 200.455C103.694 201.587 100.018 203.145 96.515 205.778C93.8984 204.791 93.1118 202.18 91.9005 199.833C91.6466 199.365 91.3926 198.896 91.1309 198.413C90.8952 197.962 90.6596 197.51 90.4168 197.045C90.1999 196.632 89.983 196.219 89.7594 195.793C89.3987 194.667 89.3987 194.667 89.6877 193.69C90.7029 192.336 92.1773 191.678 93.6518 190.917C93.9873 190.742 94.3228 190.567 94.6685 190.387C101.995 186.708 109.821 185.588 117.947 185.611ZM105.612 228.677C103.621 230.968 103.445 232.54 103.484 235.505C103.708 237.605 104.371 238.951 105.855 240.445C109.665 243.375 114.351 243.932 119.016 243.432C124.141 242.678 128.064 240.384 131.476 236.526C133.125 234.168 133.099 231.96 133.042 229.189C133.038 228.818 133.034 228.447 133.03 228.065C133.019 227.154 133.003 226.244 132.986 225.333C130.836 225.311 128.686 225.295 126.536 225.285C125.808 225.28 125.08 225.274 124.352 225.266C114.306 224.756 114.306 224.756 105.612 228.677Z" fill="white"/>
<path d="M292.503 191.111C298.444 196.11 301.183 203.07 301.998 210.667C302.157 214.013 302.102 217.366 302.085 220.715C302.083 221.684 302.082 222.653 302.081 223.622C302.078 226.156 302.069 228.69 302.059 231.223C302.05 233.816 302.046 236.408 302.042 239C302.032 244.074 302.016 249.148 301.998 254.222C296.714 254.222 291.43 254.222 285.986 254.222C285.965 251.642 285.943 249.061 285.92 246.403C285.905 244.754 285.889 243.105 285.872 241.456C285.845 238.848 285.819 236.239 285.799 233.63C285.782 231.524 285.762 229.417 285.738 227.311C285.73 226.513 285.723 225.715 285.718 224.917C285.876 213.809 285.876 213.809 281.273 204.031C280.513 203.309 279.765 202.768 278.87 202.222C278.582 202.04 278.293 201.858 277.996 201.67C273.922 199.595 268.338 199.835 263.958 200.785C259.682 202.262 256.429 204.77 254.192 208.722C251.402 214.757 251.601 221.659 251.555 228.18C251.547 228.938 251.538 229.695 251.529 230.452C251.506 232.419 251.489 234.385 251.472 236.352C251.451 238.726 251.424 241.1 251.397 243.473C251.358 247.056 251.327 250.639 251.294 254.222C246.011 254.222 240.727 254.222 235.283 254.222C235.283 231.929 235.283 209.635 235.283 186.667C240.42 186.667 245.557 186.667 250.85 186.667C251.07 190.187 251.07 190.187 251.294 193.778C251.845 193.246 252.395 192.714 252.962 192.167C263.246 183.107 281.694 182.966 292.503 191.111Z" fill="white"/>
<path d="M216.003 191.111C221.944 196.11 224.683 203.07 225.498 210.667C225.657 214.013 225.602 217.366 225.585 220.715C225.583 221.684 225.582 222.653 225.581 223.622C225.578 226.156 225.569 228.69 225.559 231.223C225.55 233.816 225.546 236.408 225.542 239C225.532 244.074 225.516 249.148 225.498 254.222C220.214 254.222 214.93 254.222 209.486 254.222C209.465 251.642 209.443 249.061 209.42 246.403C209.405 244.754 209.389 243.105 209.372 241.456C209.345 238.848 209.319 236.239 209.299 233.63C209.282 231.524 209.262 229.417 209.238 227.311C209.23 226.513 209.223 225.715 209.218 224.917C209.376 213.809 209.376 213.809 204.773 204.031C204.013 203.309 203.265 202.768 202.37 202.222C202.082 202.04 201.793 201.858 201.496 201.67C197.422 199.595 191.838 199.835 187.458 200.785C183.182 202.262 179.929 204.77 177.692 208.722C174.902 214.757 175.101 221.659 175.055 228.18C175.047 228.938 175.038 229.695 175.029 230.452C175.006 232.419 174.989 234.385 174.972 236.352C174.951 238.726 174.924 241.1 174.897 243.473C174.858 247.056 174.827 250.639 174.794 254.222C169.511 254.222 164.227 254.222 158.783 254.222C158.783 231.929 158.783 209.635 158.783 186.667C163.92 186.667 169.057 186.667 174.35 186.667C174.57 190.187 174.57 190.187 174.794 193.778C175.345 193.246 175.895 192.714 176.462 192.167C186.746 183.107 205.194 182.966 216.003 191.111Z" fill="white"/>
<path d="M382.946 171.556C388.23 171.556 393.514 171.556 398.958 171.556C398.958 176.689 398.958 181.822 398.958 187.111C404.976 187.111 410.994 187.111 417.194 187.111C417.194 191.365 417.194 195.618 417.194 200C411.176 200 405.158 200 398.958 200C398.999 206.075 398.999 206.075 399.051 212.149C399.075 214.629 399.098 217.108 399.112 219.587C399.124 221.587 399.142 223.587 399.164 225.587C399.171 226.348 399.177 227.11 399.179 227.871C399.184 228.941 399.196 230.011 399.211 231.081C399.21 231.392 399.209 231.704 399.209 232.024C399.263 234.915 399.955 237.276 401.793 239.5C404.665 241.823 407.864 241.661 411.412 241.334C412.983 240.886 414.396 240.271 415.859 239.556C416.3 239.409 416.74 239.262 417.194 239.111C417.965 240.847 418.72 242.59 419.473 244.334C419.802 245.074 419.802 245.074 420.138 245.83C420.342 246.306 420.546 246.781 420.755 247.271C420.946 247.709 421.137 248.146 421.334 248.597C421.641 249.778 421.641 249.778 421.322 250.778C420.491 251.911 419.534 252.332 418.278 252.945C417.837 253.166 417.396 253.387 416.942 253.615C410.54 256.162 401.859 256.188 395.374 253.922C390.043 251.524 386.657 248.408 384.3 243.07C383.229 240.088 382.816 237.453 382.845 234.31C382.845 233.937 382.845 233.563 382.845 233.179C382.846 231.957 382.853 230.736 382.86 229.514C382.861 228.662 382.862 227.81 382.863 226.958C382.867 224.726 382.875 222.493 382.885 220.26C382.894 217.978 382.898 215.696 382.903 213.413C382.912 208.942 382.928 204.471 382.946 200C379.277 200 375.608 200 371.827 200C371.827 195.747 371.827 191.493 371.827 187.111C375.496 187.111 379.166 187.111 382.946 187.111C382.946 181.978 382.946 176.845 382.946 171.556Z" fill="white"/>
<path d="M424.311 160.444C429.594 160.444 434.878 160.444 440.322 160.444C440.322 191.391 440.322 222.338 440.322 254.222C435.038 254.222 429.755 254.222 424.311 254.222C424.311 223.275 424.311 192.329 424.311 160.444Z" fill="#00EE8E"/>
<path d="M603.107 235.111C605.062 236.426 607.025 238.028 607.821 240.321C608.428 243.758 608.703 247.753 606.815 250.825C604.774 253.335 602.606 254.928 599.332 255.276C595.921 255.335 593.253 255.345 590.654 252.889C588.107 250.43 587.08 248.293 586.957 244.722C587.035 241.13 588.047 238.547 590.654 236C594.666 233.5 598.772 233.008 603.107 235.111Z" fill="#00EE8E"/>
</g>
<defs>
<clipPath id="clip0_78_4">
<rect width="608" height="256" fill="white"/>
</clipPath>
</defs>
</svg>
