<svg width="530" height="304" viewBox="0 0 530 304" fill="none" xmlns="http://www.w3.org/2000/svg">
<path d="M0 0C25.96 0 51.92 0 78.6667 0C84.509 13.9301 90.3187 27.8536 95.9296 41.87C102.938 59.3513 110.035 76.797 117.126 94.2472C117.414 63.1456 117.703 32.0441 118 0C143.672 0 169.343 0 195.793 0C195.793 100.31 195.793 200.619 195.793 303.969C169.833 303.969 143.873 303.969 117.126 303.969C114.62 297.682 112.114 291.395 109.532 284.917C103.418 269.592 97.2682 254.281 91.0471 238.996C88.8051 233.487 86.5764 227.972 84.3481 222.457C80.9294 214 77.5058 205.545 74.0778 197.091C73.8417 196.509 73.6056 195.927 73.3623 195.327C70.6103 188.541 67.855 181.755 65.0946 174.972C59.066 160.156 53.0628 145.33 47.0907 130.492C40.9823 115.315 34.853 100.147 28.6937 84.9894C27.9376 83.1287 27.1817 81.2679 26.4258 79.4071C23.1584 71.3637 23.1584 71.3637 19.889 63.3211C17.2891 56.9273 14.6914 50.5327 12.1016 44.135C10.8913 41.1456 9.67989 38.1566 8.46839 35.1676C7.8894 33.7382 7.31098 32.3086 6.73315 30.8788C5.9322 28.8969 5.1293 26.9159 4.32598 24.9349C4.08987 24.3492 3.85375 23.7635 3.61048 23.16C2.51254 20.4577 1.33994 17.8866 0 15.2833C0 10.2398 0 5.19633 0 0Z" fill="white"/>
<path d="M0 67.9259C1.77476 69.6499 2.28144 70.6253 3.16895 72.8497C3.43923 73.5206 3.70951 74.1915 3.98798 74.8826C4.27867 75.6176 4.56936 76.3526 4.86887 77.1098C5.17741 77.8793 5.48596 78.6487 5.80385 79.4415C6.82351 81.9871 7.83669 84.5351 8.85 87.0831C9.56249 88.8647 10.2755 90.6461 10.9889 92.4274C12.451 96.0798 13.9108 99.7331 15.3684 103.387C18.129 110.307 20.9032 117.221 23.6802 124.134C24.2489 125.55 24.8174 126.966 25.3858 128.382C30.1614 140.282 34.9871 152.162 39.8289 164.036C44.4676 175.413 49.0719 186.804 53.6463 198.206C53.9385 198.934 54.2307 199.662 54.5317 200.413C55.6706 203.251 56.8094 206.09 57.948 208.928C60.0453 214.156 62.1448 219.383 64.2592 224.603C65.044 226.553 65.8191 228.505 66.5839 230.462C68.3196 234.864 70.1275 239.068 72.456 243.207C82.499 262.05 79.2095 283.35 78.6667 303.968C52.7067 303.968 26.7467 303.968 0 303.968C0 226.074 0 148.18 0 67.9259Z" fill="white"/>
<path d="M286.696 240.288C334.867 240.288 383.037 240.288 432.667 240.288C432.667 259.061 432.667 277.834 432.667 297.176C384.496 297.176 336.326 297.176 286.696 297.176C286.696 278.403 286.696 259.63 286.696 240.288Z" fill="white"/>
<path d="M286.696 70.4731C334.867 70.4731 383.037 70.4731 432.667 70.4731C432.667 89.2462 432.667 108.019 432.667 127.361C384.496 127.361 336.326 127.361 286.696 127.361C286.696 108.588 286.696 89.8151 286.696 70.4731Z" fill="white"/>
<path d="M286.696 155.381C320.444 155.381 354.192 155.381 388.963 155.381C388.963 174.154 388.963 192.927 388.963 212.269C355.215 212.269 321.467 212.269 286.696 212.269C286.696 193.496 286.696 174.723 286.696 155.381Z" fill="white"/>
<path d="M207.156 3.39636C229.366 3.39636 251.576 3.39636 274.459 3.39636C274.459 9.28045 274.459 15.1645 274.459 21.2269C272.729 21.5071 270.998 21.7873 269.215 22.076C269.573 22.62 269.932 23.1639 270.301 23.7244C275.87 32.4093 277.817 40.7827 275.661 50.9976C272.966 59.6386 268.658 67.3493 260.498 71.9326C250.556 76.9083 239.766 78.2071 228.721 75.7766C226.651 74.9902 224.796 74.1244 222.889 73.0204C221.97 72.5126 221.05 72.0047 220.103 71.4815C212.128 65.456 207.814 58.8455 205.408 49.2464C204.44 39.2315 206.091 31.4264 211.526 22.9251C210.084 22.0845 208.642 21.2439 207.156 20.3778C207.156 14.774 207.156 9.17007 207.156 3.39636Z" fill="white"/>
<path d="M510.459 154.531C511.036 153.131 511.613 151.73 512.207 150.286C517.976 150.286 523.745 150.286 529.689 150.286C529.689 171.861 529.689 193.436 529.689 215.665C523.632 215.665 517.574 215.665 511.333 215.665C510.756 214.264 510.18 212.863 509.585 211.419C508.745 211.85 508.745 211.85 507.888 212.288C497.959 217.262 488.814 219.22 477.845 215.983C468.633 212.616 461.037 205.851 456.946 197.085C453.091 186.886 453.382 176.288 458.015 166.419C462.31 158.683 468.444 153.325 477.026 150.392C489.351 146.992 499.3 148.672 510.459 154.531Z" fill="white"/>
<path d="M240.152 151.878C241.416 151.875 241.416 151.875 242.706 151.871C244.741 151.984 244.741 151.984 245.615 152.833C245.697 154.345 245.717 155.859 245.714 157.372C245.714 158.341 245.714 159.31 245.714 160.308C245.709 161.363 245.705 162.417 245.7 163.503C245.699 164.576 245.698 165.649 245.696 166.755C245.692 169.612 245.685 172.469 245.675 175.327C245.666 178.241 245.662 181.154 245.658 184.068C245.648 189.789 245.633 195.51 245.615 201.231C246.893 200.716 248.167 200.192 249.439 199.665C250.149 199.374 250.859 199.084 251.59 198.784C254.713 197.215 255.547 195.064 256.705 191.997C257.478 186.889 256.945 183.661 254.356 179.155C254.356 178.594 254.356 178.034 254.356 177.456C253.49 177.176 252.625 176.896 251.733 176.607C251.733 169.322 251.733 162.037 251.733 154.531C256.785 155.349 258.321 155.935 262.222 158.777C263.088 159.39 263.953 160.003 264.844 160.634C272.272 166.886 275.556 175.744 276.573 185.042C277.127 195.354 274.292 204.388 267.361 212.328C259.794 219.877 251.032 223.364 240.261 223.572C230.439 223.582 222.989 220.544 215.896 213.967C207.859 205.788 205.1 196.028 205.285 184.916C205.773 175.518 209.919 166.573 216.989 160.05C223.796 154.694 231.419 151.855 240.152 151.878Z" fill="white"/>
<path d="M207.156 232.646C213.048 232.568 218.938 232.5 224.83 232.46C226.83 232.443 228.83 232.42 230.829 232.39C258.014 231.998 258.014 231.998 266.156 239.545C270.083 243.311 272.484 247.198 274.459 252.175C274.838 253.086 275.216 253.996 275.606 254.935C277.477 264.843 276.794 275.571 271.236 284.281C265.607 291.643 259.45 295.76 249.985 297.176C242.627 297.716 235.231 297.497 227.86 297.388C225.849 297.371 223.837 297.356 221.825 297.342C216.935 297.308 212.046 297.241 207.156 297.176C207.156 289.891 207.156 282.606 207.156 275.1C211.418 275.052 211.418 275.052 215.767 275.004C218.526 274.965 221.286 274.921 224.046 274.877C225.96 274.849 227.874 274.825 229.789 274.806C232.545 274.777 235.3 274.733 238.055 274.686C238.908 274.68 239.76 274.675 240.638 274.669C245.262 274.572 248.623 274.244 252.607 271.704C255.025 268.391 254.963 264.575 254.356 260.666C252.433 258.064 250.356 256.818 247.363 255.571C245.389 255.297 245.389 255.297 243.275 255.301C242.47 255.284 241.666 255.267 240.837 255.25C239.975 255.24 239.114 255.23 238.226 255.22C236.895 255.195 236.895 255.195 235.537 255.17C232.705 255.119 229.873 255.08 227.041 255.041C225.12 255.008 223.198 254.975 221.277 254.941C216.57 254.858 211.863 254.791 207.156 254.722C207.156 247.437 207.156 240.152 207.156 232.646Z" fill="white"/>
<path d="M207.156 78.1149C222.16 83.5807 237 89.3949 251.83 95.2895C254.382 96.3029 256.934 97.3131 259.487 98.3235C261.237 99.0166 262.986 99.7097 264.735 100.403C265.529 100.718 266.324 101.032 267.142 101.356C267.86 101.642 268.578 101.927 269.317 102.221C269.936 102.466 270.554 102.711 271.191 102.964C272.298 103.418 273.385 103.915 274.459 104.436C274.459 111.161 274.459 117.885 274.459 124.814C256.75 132.294 238.917 139.441 220.996 146.429C218.934 147.233 216.875 148.045 214.818 148.863C213.638 149.331 213.638 149.331 212.434 149.809C211.78 150.07 211.126 150.332 210.453 150.601C208.904 151.135 208.904 151.135 207.156 151.135C207.156 143.01 207.156 134.884 207.156 126.512C209.503 125.796 211.849 125.08 214.268 124.343C216.547 123.646 218.827 122.949 221.106 122.252C222.687 121.769 224.268 121.286 225.85 120.804C228.126 120.11 230.402 119.414 232.678 118.718C233.382 118.504 234.086 118.29 234.811 118.069C238.179 117.036 241.484 115.962 244.741 114.625C238.044 111.989 231.361 109.734 224.395 107.872C218.606 106.291 212.889 104.497 207.156 102.738C207.156 94.6124 207.156 86.4867 207.156 78.1149Z" fill="white"/>
<path d="M407.319 150.286C412.222 150.286 417.126 150.286 422.178 150.286C425.681 154.107 425.681 154.107 426.548 157.079C427.323 156.413 428.099 155.748 428.897 155.062C435.59 149.673 442.484 150.286 451.022 150.286C451.022 157.011 451.022 163.735 451.022 170.664C444.303 170.929 444.303 170.929 442.211 170.993C438.391 171.186 435.738 171.641 432.667 174.06C431.102 176.549 430.69 178.453 430.64 181.349C430.623 182.114 430.605 182.879 430.587 183.667C430.572 184.894 430.572 184.894 430.557 186.146C430.54 186.989 430.523 187.833 430.505 188.702C430.453 191.392 430.413 194.082 430.372 196.773C430.339 198.598 430.305 200.424 430.27 202.249C430.185 206.721 430.115 211.193 430.045 215.665C422.545 215.665 415.045 215.665 407.319 215.665C407.319 194.09 407.319 172.515 407.319 150.286Z" fill="white"/>
</svg>
