<svg xmlns="http://www.w3.org/2000/svg" viewBox="0 0 64 64" width="64" height="64">
  <rect width="64" height="64" rx="14" fill="#FDFBF7"/>
  <path fill="#D97706" d="M22 14a6 6 0 0 1 12 0c0 1.2-.5 2.2-1.1 3 .5-.3 1.1-.5 1.8-.5h7.8c1.4 0 2.5 1.1 2.5 2.5v7.8c0 .7.2 1.3.5 1.8.8-.6 1.8-1.1 3-1.1a6 6 0 0 1 0 12c-1.2 0-2.2-.5-3-1.1.3.5.5 1.1.5 1.8v7.8c0 1.4-1.1 2.5-2.5 2.5h-7.8c-.7 0-1.3-.2-1.8-.5.6.8 1.1 1.8 1.1 3a6 6 0 0 1-12 0c0-1.2.5-2.2 1.1-3-.5.3-1.1.5-1.8.5h-7.8A2.5 2.5 0 0 1 11 50.3v-7.8c0-.7.2-1.3.5-1.8-.8.6-1.8 1.1-3 1.1a6 6 0 0 1 0-12c1.2 0 2.2.5 3 1.1-.3-.5-.5-1.1-.5-1.8v-7.8c0-1.4 1.1-2.5 2.5-2.5h7.8c.7 0 1.3.2 1.8.5-.6-.8-1.1-1.8-1.1-3z"/>
</svg>
